<svg xmlns="http://www.w3.org/2000/svg" version="1.1" xmlns:xlink="http://www.w3.org/1999/xlink" xmlns:svgjs="http://svgjs.dev/svgjs" width="2000" height="1500" viewBox="0 0 2000 1500"><rect width="2000" height="1500" fill="#FDF7F2"></rect><g transform="matrix(0.75,0,0,0.75,249.090909090909,219.2197500000001)"><svg viewBox="0 0 396 280" data-background-color="#ffffff" preserveAspectRatio="xMidYMid meet" height="1414" width="2000" xmlns="http://www.w3.org/2000/svg" xmlns:xlink="http://www.w3.org/1999/xlink"><g id="tight-bounds" transform="matrix(1,0,0,1,0.2400000000000091,0.13999999999998636)"><svg viewBox="0 0 395.52 279.72" height="279.72" width="395.52"><g><svg viewBox="0 0 395.52 279.72" height="279.72" width="395.52"><g><svg viewBox="0 0 395.52 279.72" height="279.72" width="395.52"><g><svg viewBox="0 0 395.52 279.72" height="279.72" width="395.52"><g><svg viewBox="0 0 395.52 279.72" height="279.72" width="395.52"><g transform="matrix(1,0,0,1,81.22880246045696,47.21133399503262)"><svg viewBox="0 0 233.06239507908606 185.2973320099348" height="185.2973320099348" width="233.06239507908606"><g><circle r="82" cx="116.53119753954303" cy="92.6486660049674" fill="#ea9937" data-fill-palette-color="accent"></circle><svg xmlns="http://www.w3.org/2000/svg" xmlns:xlink="http://www.w3.org/1999/xlink" version="1.1" x="34.95935926186291" y="34.95935926186291" viewBox="28.89200210571289 26.25 42.2140007019043 47.5" style="enable-background:new 0 0 100 100;" xml:space="preserve" height="115.37861348620898" width="163.14367655536023" class="icon-o-0" data-fill-palette-color="quaternary" id="o-0"><g fill="#ffffff" data-fill-palette-color="quaternary"><path d="M50 35.596c-9.399 0-17.046 7.646-17.046 17.046S40.601 69.688 50 69.688s17.046-7.647 17.046-17.047S59.399 35.596 50 35.596zM50 68.188c-8.572 0-15.546-6.975-15.546-15.547S41.428 37.096 50 37.096s15.546 6.974 15.546 15.546S58.572 68.188 50 68.188z"  data-fill-palette-color="quaternary"></path><rect x="49.341" y="38.428" width="1.5" height="3.65"  data-fill-palette-color="quaternary"></rect><rect x="49.341" y="63.606" width="1.5" height="3.65" fill="#ffffff" data-fill-palette-color="quaternary"></rect><rect x="60.854" y="52.092" width="3.65" height="1.5"  data-fill-palette-color="quaternary"></rect><rect x="35.676" y="52.092" width="3.65" height="1.5"  data-fill-palette-color="quaternary"></rect><rect x="58.243" y="42.115" transform="matrix(0.7071 0.7071 -0.7071 0.7071 48.3488 -28.8444)" width="1.5" height="3.65"  data-fill-palette-color="quaternary"></rect><rect x="40.439" y="59.919" transform="matrix(-0.7071 -0.7071 0.7071 -0.7071 26.6531 134.5293)" width="1.5" height="3.651" data-fill-palette-color="quaternary"></rect><rect x="57.167" y="60.994" transform="matrix(-0.707 -0.7072 0.7072 -0.707 57.031 147.1176)" width="3.651" height="1.5" data-fill-palette-color="quaternary"></rect><rect x="39.363" y="43.19" transform="matrix(0.7072 0.707 -0.707 0.7072 43.1227 -16.2553)" width="3.651" height="1.5"  data-fill-palette-color="quaternary"></rect><rect x="44.522" y="62.647" transform="matrix(-0.9239 -0.3826 0.3826 -0.9239 62.4346 141.3607)" width="1.501" height="3.651"  data-fill-palette-color="quaternary"></rect><rect x="54.158" y="39.387" transform="matrix(0.9239 0.3826 -0.3826 0.9239 19.9441 -17.8716)" width="1.501" height="3.65" data-fill-palette-color="quaternary"></rect><rect x="36.634" y="47.275" transform="matrix(0.9238 0.3828 -0.3828 0.9238 21.3164 -11.0652)" width="3.65" height="1.499" data-fill-palette-color="quaternary"></rect><rect x="59.896" y="56.91" transform="matrix(-0.9239 -0.3825 0.3825 -0.9239 96.6927 134.5451)" width="3.651" height="1.501"  data-fill-palette-color="quaternary"></rect><rect x="36.634" y="56.91" transform="matrix(0.9238 -0.3828 0.3828 0.9238 -19.1447 19.1171)" width="3.65" height="1.499" data-fill-palette-color="quaternary"></rect><rect x="59.896" y="47.274" transform="matrix(-0.9239 0.3825 -0.3825 -0.9239 137.1197 68.7862)" width="3.651" height="1.501"  data-fill-palette-color="quaternary"></rect><rect x="43.448" y="40.462" transform="matrix(0.3828 0.9238 -0.9238 0.3828 66.0119 -16.3899)" width="3.65" height="1.499"  data-fill-palette-color="quaternary"></rect><rect x="53.083" y="63.722" transform="matrix(-0.3825 -0.9239 0.9239 -0.3825 16.3428 139.8672)" width="3.651" height="1.501"  data-fill-palette-color="quaternary"></rect><path d="M55.573 60.84c0.264-0.19 0.373-0.529 0.272-0.838l-0.744-2.292c0.047-0.031 0.099-0.054 0.139-0.097 1.277-1.349 1.98-3.11 1.98-4.959 0-0.074-0.004-0.147-0.015-0.305-0.002-0.046-0.024-0.086-0.035-0.13l1.574-1.143c0.264-0.19 0.373-0.529 0.272-0.838-0.1-0.31-0.388-0.519-0.713-0.519h-1.753c-0.012-0.062-0.018-0.126-0.047-0.186-0.997-2.072-2.935-3.558-5.184-3.975-0.057-0.011-0.112 0-0.168 0.003l-0.442-1.359c-0.1-0.31-0.388-0.519-0.713-0.519s-0.613 0.209-0.713 0.519l-0.442 1.359c-0.056-0.003-0.111-0.013-0.169-0.002-2.249 0.418-4.187 1.903-5.183 3.975-0.029 0.06-0.035 0.123-0.047 0.186h-1.753c-0.325 0-0.613 0.209-0.713 0.519-0.101 0.309 0.009 0.647 0.272 0.838l1.585 1.152c-0.022 0.067-0.047 0.134-0.05 0.206-0.006 0.073-0.01 0.146-0.01 0.221 0 1.848 0.702 3.609 1.979 4.959 0.041 0.043 0.092 0.066 0.14 0.097l-0.744 2.292c-0.101 0.309 0.009 0.647 0.272 0.838 0.131 0.096 0.286 0.144 0.44 0.144s0.31-0.048 0.44-0.144l2.059-1.496c0.039 0.024 0.071 0.055 0.116 0.072 0.82 0.305 1.668 0.46 2.519 0.46s1.697-0.154 2.516-0.459c0.045-0.017 0.078-0.049 0.118-0.073l2.059 1.496C54.954 61.031 55.312 61.031 55.573 60.84zM54.896 49.72h-2.39l-0.822-2.528C53.022 47.606 54.169 48.511 54.896 49.72zM48.316 47.192l-0.821 2.528h-2.39C45.832 48.512 46.978 47.606 48.316 47.192zM45.435 56.055c-0.602-0.806-0.976-1.74-1.093-2.735l1.603 1.164L45.435 56.055zM48.873 58.249L50 57.431l1.127 0.819C50.38 58.403 49.62 58.403 48.873 58.249zM50.44 55.897c-0.262-0.191-0.619-0.191-0.881 0l-3.267 2.373 1.247-3.841c0.101-0.309-0.009-0.647-0.272-0.838l-3.265-2.372h4.036c0.325 0 0.613-0.209 0.713-0.519L50 46.861l1.248 3.84c0.1 0.31 0.388 0.519 0.713 0.519h4.036l-3.265 2.372c-0.264 0.19-0.373 0.529-0.272 0.838l1.247 3.841L50.44 55.897zM54.055 54.484l1.604-1.165c-0.117 0.995-0.491 1.929-1.094 2.735L54.055 54.484z"  data-fill-palette-color="quaternary"></path><path d="M57.405 32.902v-4.066c0-1.426-1.16-2.586-2.586-2.586h-9.638c-1.427 0-2.587 1.16-2.587 2.586v4.066c-7.991 3.008-13.702 10.71-13.702 19.74 0 11.64 9.469 21.108 21.107 21.108s21.107-9.469 21.107-21.108C71.107 43.612 65.396 35.911 57.405 32.902zM45.095 28.836c0-0.048 0.039-0.086 0.087-0.086h9.638c0.048 0 0.086 0.038 0.086 0.086v3.298c-1.577-0.377-3.214-0.599-4.905-0.599s-3.328 0.221-4.905 0.599V28.836zM50 71.25c-10.26 0-18.607-8.348-18.607-18.608 0-10.26 8.348-18.606 18.607-18.606s18.607 8.347 18.607 18.606C68.607 62.902 60.26 71.25 50 71.25z" data-fill-palette-color="quaternary"></path><rect x="46.739" y="29.632" width="6.521" height="1.234"  data-fill-palette-color="quaternary"></rect></g></svg></g></svg></g><path d="M88.225 103.488C87.503 105.561 86.582 107.271 85.462 108.619 84.349 109.969 82.962 111.058 81.303 111.886V111.886L80.266 110.635C81.949 109.737 83.274 108.715 84.239 107.568 85.2 106.412 86.015 104.873 86.684 102.951V102.951C87.512 100.576 87.657 98.567 87.12 96.924 86.592 95.277 85.414 94.136 83.587 93.499V93.499C82.535 93.132 81.57 93.164 80.693 93.593 79.817 94.016 79.045 94.64 78.376 95.467 77.71 96.302 76.91 97.454 75.974 98.923V98.923C74.703 100.889 73.659 102.384 72.843 103.406 72.024 104.421 70.972 105.217 69.69 105.795 68.414 106.375 66.951 106.377 65.3 105.802V105.802C63.826 105.288 62.666 104.471 61.82 103.349 60.98 102.23 60.5 100.872 60.378 99.275 60.262 97.681 60.527 95.957 61.172 94.105V94.105C62.435 90.482 64.654 87.934 67.831 86.462V86.462L68.871 87.704C67.258 88.541 65.965 89.514 64.992 90.624 64.022 91.727 63.262 93.066 62.713 94.641V94.641C61.885 97.017 61.751 99.044 62.311 100.723 62.877 102.403 64.086 103.567 65.939 104.212V104.212C67.539 104.77 68.92 104.608 70.082 103.727 71.246 102.839 72.451 101.45 73.696 99.56V99.56L74.637 98.075C75.66 96.418 76.575 95.098 77.384 94.115 78.185 93.136 79.16 92.405 80.31 91.923 81.46 91.44 82.772 91.456 84.247 91.97V91.97C85.646 92.457 86.753 93.263 87.569 94.389 88.379 95.512 88.849 96.859 88.98 98.431 89.104 100 88.853 101.686 88.225 103.488ZM96.803 74.158L84.522 52.619 85.324 51.386 108.79 66.649 107.901 68.017 87.385 54.625 98.508 74.455 97.771 75.588 75.224 73.614 95.65 86.852 94.76 88.219 71.295 72.956 72.075 71.756ZM132.981 46.104L131.641 47.232 124.102 43.455 112.23 53.455 114.671 61.527 113.362 62.629 104.529 33.469 105.746 32.444ZM106.513 34.598L111.724 51.813 122.57 42.677ZM148.577 27.418L157.43 33.727 155.793 34.548 147.545 28.642C146.338 27.769 145.226 27.323 144.209 27.303 143.188 27.278 141.956 27.627 140.513 28.351V28.351L134.734 31.25 140.29 42.325 138.831 43.056 126.28 18.035 135.932 13.193C138.515 11.897 140.803 11.481 142.797 11.944 144.793 12.413 146.36 13.78 147.497 16.047V16.047C148.472 17.991 148.675 19.83 148.104 21.565 147.542 23.302 146.267 24.815 144.279 26.104V26.104C144.965 25.998 145.65 26.054 146.333 26.271 147.026 26.491 147.774 26.873 148.577 27.418ZM134.056 29.809L142.251 25.699C146.58 23.527 147.803 20.562 145.918 16.805V16.805C144.991 14.956 143.767 13.842 142.248 13.462 140.726 13.091 138.864 13.458 136.664 14.561V14.561L128.469 18.672ZM172.396 30.434L170.766 30.802 164.923 4.973 154.898 7.241 154.565 5.767 176.255 0.861 176.589 2.335 166.554 4.604ZM201.145 22.101L212.612 0.118 214.083 0.126 213.946 28.118 212.315 28.11 212.474 3.611 201.818 23.695 200.467 23.689 189.925 3.661 189.847 28.001 188.215 27.993 188.352 0 189.783 0.007ZM244.317 37.338L242.643 36.822 241.739 28.438 226.904 23.868 221.438 30.29 219.803 29.787 239.54 6.576 241.061 7.044ZM239.665 8.855L228.01 22.555 241.563 26.73ZM268.468 40.343L267.953 51.201 266.377 50.268 266.881 40.136C266.962 38.649 266.735 37.473 266.201 36.607 265.67 35.735 264.71 34.888 263.32 34.066V34.066L257.755 30.774 251.448 41.439 250.044 40.608 264.294 16.514 273.589 22.011C276.076 23.482 277.664 25.181 278.353 27.108 279.039 29.041 278.737 31.099 277.447 33.281V33.281C276.339 35.153 274.902 36.319 273.135 36.777 271.37 37.245 269.407 36.991 267.248 36.016V36.016C267.708 36.536 268.031 37.143 268.219 37.835 268.408 38.536 268.492 39.372 268.468 40.343ZM258.6 29.425L266.491 34.092C270.66 36.558 273.814 35.982 275.954 32.364V32.364C277.007 30.583 277.282 28.952 276.78 27.468 276.268 25.987 274.953 24.62 272.834 23.367V23.367L264.943 18.7ZM285.602 48.552L287.454 70.263 285.72 68.572 283.917 47.957 274.492 57.624 273.324 56.485 292.867 36.443 294.035 37.582 284.888 46.961 304.661 47.944 306.345 49.586ZM299.881 89.199L290.499 75.222 313.741 59.62 323.123 73.597 321.835 74.462 313.385 61.873 303.862 68.265 311.872 80.198 310.584 81.062 302.574 69.13 292.719 75.745 301.169 88.334ZM305.348 103.48L304.749 101.92 329.472 92.431 325.789 82.835 327.2 82.293 335.169 103.055 333.758 103.596 330.071 93.991ZM96.654 189.677L97.209 191.253 81.854 186.546 70.375 190.586 69.88 189.179 81.397 185.126 90.381 171.853 90.959 173.496 82.827 185.45ZM79.541 211.23C78.483 209.269 78.014 207.32 78.135 205.381 78.263 203.44 78.967 201.619 80.248 199.919 81.526 198.213 83.313 196.741 85.609 195.502V195.502C87.922 194.253 90.139 193.557 92.26 193.412 94.378 193.263 96.285 193.67 97.981 194.635 99.668 195.597 101.046 197.067 102.114 199.046V199.046C103.185 201.031 103.663 202.998 103.548 204.948 103.427 206.901 102.73 208.722 101.458 210.409 100.182 212.091 98.384 213.558 96.065 214.81V214.81C93.752 216.059 91.533 216.752 89.409 216.89 87.285 217.029 85.375 216.615 83.679 215.65 81.992 214.688 80.612 213.215 79.541 211.23ZM80.818 210.541C82.241 213.177 84.219 214.741 86.751 215.232 89.283 215.723 92.134 215.112 95.305 213.401V213.401C98.481 211.686 100.556 209.645 101.53 207.277 102.5 204.903 102.269 202.389 100.837 199.735V199.735C99.43 197.129 97.466 195.576 94.946 195.079 92.422 194.576 89.572 195.182 86.396 196.896V196.896C83.225 198.608 81.152 200.66 80.176 203.052 79.197 205.438 79.411 207.934 80.818 210.541ZM95.475 233.978C93.47 231.575 92.588 229.231 92.828 226.945 93.068 224.66 94.425 222.485 96.9 220.421V220.421L108.874 210.433 109.803 211.548 97.645 221.689C93.505 225.143 93.153 228.929 96.589 233.048V233.048C98.277 235.072 100.073 236.168 101.976 236.335 103.884 236.508 105.868 235.735 107.927 234.017V234.017L120.086 223.875 121.041 225.02 109.067 235.008C106.592 237.073 104.207 238.015 101.912 237.836 99.612 237.652 97.466 236.366 95.475 233.978ZM124.588 248.519L122.761 258.093 121.48 257.067 123.2 248.139C123.453 246.829 123.401 245.758 123.042 244.924 122.679 244.086 121.931 243.215 120.801 242.311V242.311L116.268 238.685 109.335 247.352 108.194 246.439 123.867 226.846 131.432 232.898C133.449 234.511 134.642 236.218 135.013 238.018 135.379 239.815 134.851 241.601 133.43 243.378V243.378C132.213 244.899 130.794 245.755 129.172 245.945 127.542 246.135 125.83 245.663 124.038 244.529V244.529C124.381 245.051 124.592 245.63 124.673 246.267 124.754 246.913 124.726 247.664 124.588 248.519ZM117.193 237.592L123.61 242.725C127.001 245.438 129.875 245.323 132.23 242.379V242.379C133.384 240.936 133.83 239.524 133.568 238.144 133.305 236.763 132.311 235.383 130.587 234.003V234.003L124.17 228.87ZM154.511 259.443C155.688 260.36 156.425 261.461 156.723 262.747 157.021 264.033 156.852 265.392 156.216 266.825V266.825C155.312 268.862 153.985 270.124 152.236 270.61 150.49 271.09 148.425 270.801 146.04 269.743V269.743L137.222 265.828 147.403 242.896 155.864 246.652C158.181 247.681 159.742 248.991 160.547 250.582 161.346 252.17 161.312 253.94 160.446 255.891V255.891C159.888 257.147 159.094 258.073 158.064 258.666 157.034 259.26 155.849 259.519 154.511 259.443ZM148.21 244.776L144.052 254.143 150.976 257.217C152.928 258.084 154.596 258.331 155.979 257.96 157.363 257.589 158.402 256.623 159.095 255.062V255.062C160.443 252.025 159.123 249.621 155.135 247.85V247.85ZM146.568 268.455C148.611 269.362 150.3 269.644 151.634 269.302 152.962 268.958 153.987 267.974 154.707 266.352V266.352C155.43 264.724 155.473 263.269 154.838 261.987 154.203 260.705 152.885 259.619 150.885 258.731V258.731L143.475 255.442 139.159 265.166ZM175.339 278.42L160.68 274.828 166.652 250.458 181.31 254.05 180.979 255.401 167.779 252.167 165.332 262.15 177.843 265.215 177.512 266.567 165.001 263.501 162.469 273.834 175.67 277.069ZM189.361 279.684C187.398 279.546 185.703 279.157 184.276 278.515 182.843 277.866 181.575 276.921 180.472 275.68V275.68L181.308 274.484C182.478 275.73 183.675 276.637 184.9 277.204 186.118 277.765 187.639 278.109 189.463 278.236V278.236C191.712 278.394 193.486 278.047 194.783 277.195 196.079 276.349 196.788 275.061 196.91 273.331V273.331C196.979 272.339 196.726 271.512 196.15 270.849 195.581 270.194 194.858 269.675 193.982 269.293 193.106 268.91 191.921 268.49 190.429 268.031V268.031C188.427 267.389 186.891 266.833 185.82 266.363 184.749 265.9 183.813 265.182 183.011 264.21 182.21 263.237 181.864 261.969 181.974 260.405V260.405C182.072 259.007 182.506 257.814 183.278 256.824 184.05 255.828 185.112 255.093 186.463 254.62 187.82 254.146 189.374 253.971 191.125 254.094V254.094C194.552 254.334 197.276 255.652 199.295 258.047V258.047L198.469 259.243C197.362 258.049 196.217 257.159 195.034 256.575 193.851 255.99 192.514 255.646 191.023 255.541V255.541C188.773 255.384 186.986 255.747 185.659 256.63 184.34 257.514 183.619 258.831 183.496 260.582V260.582C183.39 262.099 183.854 263.256 184.889 264.05 185.929 264.852 187.414 265.569 189.343 266.199V266.199L190.845 266.665C192.523 267.164 193.88 267.644 194.918 268.104 195.956 268.572 196.818 269.248 197.505 270.132 198.193 271.009 198.487 272.147 198.389 273.545V273.545C198.297 274.869 197.862 276.016 197.085 276.985 196.301 277.953 195.244 278.675 193.913 279.15 192.582 279.626 191.065 279.803 189.361 279.684ZM211.708 278.666L210.225 278.82 207.778 255.207 198.609 256.157 198.47 254.813 218.29 252.759 218.429 254.103 209.261 255.053ZM244.656 271.001C242.484 271.762 240.44 271.941 238.524 271.538 236.606 271.129 234.902 270.16 233.412 268.632 231.922 267.104 230.738 265.086 229.859 262.58V262.58C228.979 260.068 228.646 257.756 228.86 255.645 229.075 253.533 229.805 251.722 231.05 250.211 232.293 248.694 234 247.555 236.173 246.793V246.793C239.485 245.633 242.542 245.753 245.345 247.153V247.153L245.06 248.579C243.517 247.91 242.09 247.548 240.776 247.492 239.456 247.438 238.069 247.667 236.615 248.176V248.176C233.75 249.18 231.857 250.901 230.936 253.337 230.022 255.772 230.157 258.679 231.342 262.061V262.061C232.534 265.461 234.246 267.827 236.48 269.158 238.721 270.486 241.273 270.649 244.138 269.645V269.645C245.593 269.135 246.819 268.447 247.816 267.582 248.808 266.718 249.697 265.544 250.485 264.059V264.059L251.597 264.995C250.282 267.838 247.968 269.84 244.656 271.001ZM246.109 242.796L247.405 242.038 253.294 252.113 267.853 243.603 268.54 244.778 253.981 253.288 260.067 263.7 258.771 264.457ZM274.66 255.17L261.999 233.508 263.286 232.755 275.948 254.417ZM289.961 242.087C288.33 243.605 286.56 244.549 284.654 244.92 282.743 245.285 280.804 245.062 278.836 244.249 276.863 243.442 274.989 242.083 273.212 240.173V240.173C271.421 238.248 270.189 236.277 269.516 234.261 268.838 232.249 268.753 230.3 269.26 228.416 269.767 226.541 270.843 224.838 272.49 223.307V223.307C274.141 221.771 275.924 220.813 277.841 220.434 279.761 220.059 281.699 220.276 283.652 221.083 285.601 221.894 287.473 223.265 289.268 225.194V225.194C291.059 227.119 292.288 229.092 292.956 231.113 293.625 233.134 293.705 235.087 293.198 236.971 292.691 238.846 291.612 240.551 289.961 242.087ZM288.973 241.025C291.166 238.984 292.182 236.677 292.02 234.103 291.858 231.529 290.55 228.923 288.096 226.285V226.285C285.637 223.642 283.139 222.148 280.603 221.801 278.061 221.459 275.686 222.315 273.478 224.369V224.369C271.309 226.387 270.301 228.678 270.454 231.242 270.602 233.811 271.905 236.417 274.364 239.06V239.06C276.818 241.698 279.325 243.188 281.886 243.531 284.441 243.878 286.804 243.043 288.973 241.025ZM303.064 227.855L302.133 228.982 282.791 212.999 283.722 211.873ZM313.112 212.716C311.904 214.676 310.429 216.103 308.687 216.996 306.939 217.886 305.006 218.207 302.886 217.958 300.766 217.71 298.576 216.889 296.315 215.495V215.495C294.049 214.099 292.334 212.513 291.171 210.738 290.008 208.962 289.434 207.096 289.449 205.138 289.459 203.177 290.068 201.217 291.276 199.257V199.257C293.117 196.269 295.568 194.437 298.627 193.759V193.759L299.303 195.046C297.684 195.498 296.347 196.116 295.292 196.9 294.233 197.69 293.299 198.74 292.49 200.053V200.053C290.897 202.637 290.511 205.165 291.33 207.638 292.153 210.104 294.09 212.278 297.14 214.158V214.158C300.207 216.048 303.027 216.807 305.601 216.434 308.178 216.055 310.263 214.573 311.856 211.989V211.989C312.664 210.677 313.184 209.371 313.413 208.07 313.639 206.775 313.59 205.303 313.267 203.653V203.653L314.72 203.679C315.49 206.717 314.954 209.729 313.112 212.717ZM325.549 184.904L319.956 198.922 296.652 189.623 302.245 175.606 303.537 176.121 298.5 188.744 308.047 192.554 312.82 180.59 314.112 181.106 309.339 193.069 319.22 197.012 324.257 184.388ZM67.458 144.528C67.458 142.736 68.911 141.283 70.703 141.283 72.495 141.283 73.947 142.736 73.947 144.528 73.947 146.32 72.495 147.772 70.703 147.772 68.911 147.772 67.458 146.32 67.458 144.528ZM319.418 144.528C319.418 142.736 320.871 141.283 322.663 141.283 324.455 141.283 325.907 142.736 325.907 144.528 325.907 146.32 324.455 147.772 322.663 147.772 320.871 147.772 319.418 146.32 319.418 144.528Z" fill="#ea9937" data-fill-palette-color="primary"></path></svg></g></svg></g></svg></g><g></g></svg></g><defs></defs></svg><rect width="395.52" height="279.72" fill="none" stroke="none" visibility="hidden"></rect></g></svg></g></svg>